<svg xmlns="http://www.w3.org/2000/svg" xmlns:xlink="http://www.w3.org/1999/xlink" width="500" zoomAndPan="magnify" viewBox="0 0 375 374.999991" height="500" preserveAspectRatio="xMidYMid meet" version="1.0"><defs><g/><clipPath id="521b010983"><path d="M 47 164 L 263.027344 164 L 263.027344 325 L 47 325 Z M 47 164 " clip-rule="nonzero"/></clipPath><clipPath id="8e482df4ad"><path d="M 37.5 193 L 56 193 L 56 259 L 37.5 259 Z M 37.5 193 " clip-rule="nonzero"/></clipPath><clipPath id="77c0866e1b"><path d="M 48 158 L 263.027344 158 L 263.027344 322 L 48 322 Z M 48 158 " clip-rule="nonzero"/></clipPath></defs><g clip-path="url(#521b010983)"><path fill="#c6c4a3" d="M 223.222656 288.742188 C 238.339844 303.601562 263.023438 321.714844 263.023438 321.714844 C 251.878906 311.527344 214.023438 309.054688 205.578125 310.222656 C 190.515625 316.269531 175.414062 320.933594 171.046875 321.722656 C 135.496094 328.148438 74.027344 323.429688 53.578125 280.292969 C 41.996094 255.867188 47.230469 226.851562 59.339844 207.09375 C 86.433594 162.882812 155.121094 153.277344 200.578125 178.507812 C 227.167969 193.265625 251.820312 226.472656 243.488281 263.289062 C 240.660156 275.800781 232.019531 281.027344 223.222656 288.742188 Z M 223.222656 288.742188 " fill-opacity="1" fill-rule="nonzero"/></g><g clip-path="url(#8e482df4ad)"><path fill="#baff39" d="M 40.464844 258.039062 C 40.5625 258.039062 40.664062 258.03125 40.765625 258.019531 C 41.878906 257.855469 42.652344 256.816406 42.488281 255.703125 C 41.488281 248.886719 41.371094 241.800781 42.144531 234.644531 C 42.867188 227.910156 44.363281 221.199219 46.589844 214.691406 C 48.742188 208.40625 51.519531 202.464844 54.847656 197.035156 C 55.4375 196.074219 55.136719 194.816406 54.171875 194.226562 C 53.210938 193.636719 51.953125 193.941406 51.363281 194.902344 C 47.878906 200.589844 44.972656 206.800781 42.722656 213.371094 C 40.398438 220.164062 38.835938 227.171875 38.082031 234.207031 C 37.273438 241.707031 37.394531 249.136719 38.445312 256.292969 C 38.59375 257.308594 39.46875 258.039062 40.464844 258.039062 Z M 40.464844 258.039062 " fill-opacity="1" fill-rule="nonzero"/></g><path fill="#baff39" d="M 93.296875 162.972656 C 93.585938 162.972656 93.882812 162.910156 94.164062 162.78125 C 109.757812 155.441406 127.761719 151.5625 146.234375 151.5625 C 156.597656 151.5625 166.847656 152.78125 176.695312 155.179688 C 177.792969 155.445312 178.898438 154.773438 179.164062 153.679688 C 179.433594 152.582031 178.761719 151.480469 177.664062 151.210938 C 167.5 148.734375 156.925781 147.480469 146.234375 147.480469 C 127.164062 147.480469 108.558594 151.492188 92.421875 159.085938 C 91.402344 159.566406 90.964844 160.78125 91.445312 161.800781 C 91.792969 162.539062 92.527344 162.972656 93.296875 162.972656 Z M 93.296875 162.972656 " fill-opacity="1" fill-rule="nonzero"/><path fill="#baff39" d="M 247.808594 203.941406 C 248.214844 203.941406 248.625 203.820312 248.980469 203.570312 C 249.902344 202.925781 250.128906 201.652344 249.480469 200.726562 C 243.925781 192.808594 237.132812 185.304688 229.296875 178.421875 C 228.449219 177.679688 227.15625 177.761719 226.410156 178.609375 C 225.667969 179.457031 225.75 180.746094 226.597656 181.488281 C 234.191406 188.15625 240.765625 195.417969 246.132812 203.070312 C 246.535156 203.636719 247.167969 203.941406 247.808594 203.941406 Z M 247.808594 203.941406 " fill-opacity="1" fill-rule="nonzero"/><g clip-path="url(#77c0866e1b)"><path fill="#baff39" d="M 234.832031 288.457031 C 249.949219 303.316406 263.023438 321.714844 263.023438 321.714844 C 251.882812 311.527344 222.90625 307.40625 205.402344 305.808594 C 190.339844 311.855469 176.585938 314.339844 172.21875 315.132812 C 136.664062 321.558594 75.195312 316.835938 54.746094 273.703125 C 43.164062 249.277344 48.398438 220.261719 60.511719 200.5 C 87.601562 156.292969 156.292969 146.683594 201.746094 171.914062 C 228.339844 186.671875 261.789062 221.574219 253.460938 258.390625 C 250.628906 270.898438 243.628906 280.738281 234.832031 288.457031 Z M 234.832031 288.457031 " fill-opacity="1" fill-rule="nonzero"/></g><g fill="#dcff9c" fill-opacity="1"><g transform="translate(10.790362, 138.044468)"><g><path d="M 41.445312 -78.042969 L 17.320312 -78.042969 C 7.730469 -78.042969 0 -70.308594 0 -60.824219 L 0 -17.421875 C 0 -7.835938 7.730469 -0.101562 17.320312 -0.101562 L 41.445312 -0.101562 L 41.445312 -15.050781 L 17.320312 -15.050781 C 15.980469 -15.050781 14.949219 -16.082031 14.949219 -17.421875 L 14.949219 -60.824219 C 14.949219 -62.0625 15.980469 -63.195312 17.320312 -63.195312 L 41.445312 -63.195312 Z M 41.445312 -78.042969 "/></g></g></g><g fill="#dcff9c" fill-opacity="1"><g transform="translate(57.388131, 138.044468)"><g><path d="M 28.144531 -77.835938 L 17.320312 -77.835938 C 7.835938 -77.835938 0 -70.105469 0 -60.515625 L 0 -17.214844 C 0 -7.628906 7.835938 0.101562 17.320312 0.101562 L 28.144531 0.101562 C 37.730469 0.101562 45.464844 -7.628906 45.464844 -17.214844 L 45.464844 -60.515625 C 45.464844 -70.105469 37.730469 -77.835938 28.144531 -77.835938 Z M 30.617188 -17.214844 C 30.617188 -15.875 29.484375 -14.84375 28.144531 -14.84375 L 17.320312 -14.84375 C 15.980469 -14.84375 14.949219 -15.875 14.949219 -17.214844 L 14.949219 -60.515625 C 14.949219 -61.855469 15.980469 -62.992188 17.320312 -62.992188 L 28.144531 -62.992188 C 29.484375 -62.992188 30.617188 -61.855469 30.617188 -60.515625 Z M 30.617188 -17.214844 "/></g></g></g><g fill="#dcff9c" fill-opacity="1"><g transform="translate(108.006503, 138.044468)"><g><path d="M 26.390625 -78.144531 L 26.390625 -56.289062 L 15.773438 -78.144531 L 0 -78.144531 L 0 -0.101562 L 14.949219 -0.101562 L 14.949219 -45.875 L 26.390625 -22.371094 L 26.390625 -0.101562 L 41.339844 -0.101562 L 41.339844 -78.144531 Z M 26.390625 -78.144531 "/></g></g></g><g fill="#dcff9c" fill-opacity="1"><g transform="translate(154.501177, 138.044468)"><g><path d="M 0 -77.835938 L 0 -62.992188 L 20 -62.992188 L 20 0.101562 L 34.847656 0.101562 L 34.847656 -62.992188 L 54.847656 -62.992188 L 54.847656 -77.835938 L 34.847656 -77.835938 L 34.847656 -77.9375 L 20 -77.9375 L 20 -77.835938 Z M 0 -77.835938 "/></g></g></g><g fill="#dcff9c" fill-opacity="1"><g transform="translate(214.500964, 138.044468)"><g><path d="M 19.277344 -15.566406 L 35.15625 -15.566406 L 38.144531 -0.101562 L 53.300781 -0.101562 L 38.351562 -78.144531 L 30.722656 -78.144531 L 30.515625 -78.042969 L 27.214844 -78.042969 L 27.113281 -78.144531 L 19.484375 -78.144531 L 19.484375 -78.042969 L 0 -0.101562 L 15.464844 -0.101562 Z M 28.246094 -51.648438 L 32.269531 -30.515625 L 22.988281 -30.515625 Z M 28.246094 -51.648438 "/></g></g></g><g fill="#dcff9c" fill-opacity="1"><g transform="translate(272.954353, 138.044468)"><g><path d="M 41.445312 -78.042969 L 17.320312 -78.042969 C 7.730469 -78.042969 0 -70.308594 0 -60.824219 L 0 -17.421875 C 0 -7.835938 7.730469 -0.101562 17.320312 -0.101562 L 41.445312 -0.101562 L 41.445312 -15.050781 L 17.320312 -15.050781 C 15.980469 -15.050781 14.949219 -16.082031 14.949219 -17.421875 L 14.949219 -60.824219 C 14.949219 -62.0625 15.980469 -63.195312 17.320312 -63.195312 L 41.445312 -63.195312 Z M 41.445312 -78.042969 "/></g></g></g><g fill="#dcff9c" fill-opacity="1"><g transform="translate(319.552122, 138.044468)"><g><path d="M 0 -77.835938 L 0 -62.992188 L 20 -62.992188 L 20 0.101562 L 34.847656 0.101562 L 34.847656 -62.992188 L 54.847656 -62.992188 L 54.847656 -77.835938 L 34.847656 -77.835938 L 34.847656 -77.9375 L 20 -77.9375 L 20 -77.835938 Z M 0 -77.835938 "/></g></g></g><path stroke-linecap="butt" transform="matrix(0.773223, 0, 0, 0.773223, 0.0000045, 62.351715)" fill="none" stroke-linejoin="miter" d="M 61.673674 -8.942073 L 30.457941 -8.942073 C 18.055509 -8.942073 8.062838 1.085963 8.062838 13.321681 L 8.062838 69.473627 C 8.062838 81.876058 18.055509 91.86873 30.457941 91.86873 L 61.673674 91.86873 L 61.673674 72.535082 L 30.457941 72.535082 C 28.730189 72.535082 27.396485 71.201379 27.396485 69.473627 L 27.396485 13.321681 C 27.396485 11.73033 28.730189 10.265277 30.457941 10.265277 L 61.673674 10.265277 Z M 104.720973 -8.649062 L 90.722139 -8.649062 C 78.451057 -8.649062 68.327035 1.34361 68.327035 13.746041 L 68.327035 69.736326 C 68.327035 82.138757 78.451057 92.131429 90.722139 92.131429 L 104.720973 92.131429 C 117.123404 92.131429 127.116076 82.138757 127.116076 69.736326 L 127.116076 13.746041 C 127.116076 1.34361 117.123404 -8.649062 104.720973 -8.649062 Z M 107.944089 69.736326 C 107.944089 71.459026 106.443673 72.792729 104.720973 72.792729 L 90.722139 72.792729 C 88.994386 72.792729 87.660683 71.459026 87.660683 69.736326 L 87.660683 13.746041 C 87.660683 11.987978 88.994386 10.522925 90.722139 10.522925 L 104.720973 10.522925 C 106.443673 10.522925 107.944089 11.987978 107.944089 13.746041 Z M 167.935484 -9.073422 L 167.935484 19.217257 L 154.199349 -9.073422 L 133.789645 -9.073422 L 133.789645 91.86873 L 153.128345 91.86873 L 153.128345 32.660381 L 167.935484 63.062757 L 167.935484 91.86873 L 187.23882 91.86873 L 187.23882 -9.073422 Z M 193.922493 -8.649062 L 193.922493 10.522925 L 219.79836 10.522925 L 219.79836 92.131429 L 238.975399 92.131429 L 238.975399 10.522925 L 264.851266 10.522925 L 264.851266 -8.649062 L 238.975399 -8.649062 L 238.975399 -8.810723 L 219.79836 -8.810723 L 219.79836 -8.649062 Z M 296.450944 71.883386 L 316.991997 71.883386 L 320.86681 91.86873 L 340.463157 91.86873 L 321.129509 -9.073422 L 311.263135 -9.073422 L 310.970124 -8.942073 L 306.706315 -8.942073 L 306.574965 -9.073422 L 296.713643 -9.073422 L 296.713643 -8.942073 L 271.519783 91.86873 L 291.505127 91.86873 Z M 308.040018 25.203766 L 313.248534 52.549738 L 301.240152 52.549738 Z M 400.727354 -8.942073 L 369.511622 -8.942073 C 357.10919 -8.942073 347.116518 1.085963 347.116518 13.321681 L 347.116518 69.473627 C 347.116518 81.876058 357.10919 91.86873 369.511622 91.86873 L 400.727354 91.86873 L 400.727354 72.535082 L 369.511622 72.535082 C 367.783869 72.535082 366.450166 71.201379 366.450166 69.473627 L 366.450166 13.321681 C 366.450166 11.73033 367.783869 10.265277 369.511622 10.265277 L 400.727354 10.265277 Z M 407.380716 -8.649062 L 407.380716 10.522925 L 433.256583 10.522925 L 433.256583 92.131429 L 452.433622 92.131429 L 452.433622 10.522925 L 478.309489 10.522925 L 478.309489 -8.649062 L 452.433622 -8.649062 L 452.433622 -8.810723 L 433.256583 -8.810723 L 433.256583 -8.649062 Z M 407.380716 -8.649062 " stroke="#baff39" stroke-width="4.999988" stroke-opacity="1" stroke-miterlimit="4"/><g fill="#dcff9c" fill-opacity="1"><g transform="translate(277.081076, 230.057991)"><g><path d="M 35.050781 -78.144531 L 25.464844 -58.246094 L 15.773438 -78.144531 L 0 -78.144531 L 0 -0.101562 L 14.949219 -0.101562 L 14.949219 -45.875 L 25.566406 -24.125 L 35.875 -45.464844 L 35.875 -0.101562 L 50.824219 -0.101562 L 50.824219 -78.144531 Z M 35.050781 -78.144531 "/></g></g></g><g fill="#dcff9c" fill-opacity="1"><g transform="translate(333.06026, 230.057991)"><g><path d="M 41.339844 -78.042969 L 0 -78.144531 L 0 -0.101562 L 41.339844 -0.101562 L 41.339844 -15.050781 L 14.949219 -15.050781 L 14.949219 -33.710938 L 31.960938 -33.710938 L 31.960938 -48.660156 L 14.949219 -48.660156 L 14.949219 -63.195312 L 41.339844 -63.195312 Z M 41.339844 -78.042969 "/></g></g></g><path stroke-linecap="butt" transform="matrix(0.773223, 0, 0, 0.773223, 0.0000045, 62.351715)" fill="none" stroke-linejoin="miter" d="M 397.797248 109.929297 L 385.394817 135.678867 L 372.861036 109.929297 L 352.451332 109.929297 L 352.451332 210.871449 L 371.790032 210.871449 L 371.790032 151.658048 L 385.526167 179.817377 L 398.837941 152.213758 L 398.837941 210.871449 L 418.176641 210.871449 L 418.176641 109.929297 Z M 478.299385 110.060647 L 424.85021 109.929297 L 424.85021 210.871449 L 478.299385 210.871449 L 478.299385 191.532749 L 444.183858 191.532749 L 444.183858 167.414946 L 466.189964 167.414946 L 466.189964 148.076246 L 444.183858 148.076246 L 444.183858 129.262945 L 478.299385 129.262945 Z M 478.299385 110.060647 " stroke="#baff39" stroke-width="4.999988" stroke-opacity="1" stroke-miterlimit="4"/></svg>