<svg xmlns="http://www.w3.org/2000/svg" xmlns:xlink="http://www.w3.org/1999/xlink" width="500" zoomAndPan="magnify" viewBox="0 0 375 374.999991" height="500" preserveAspectRatio="xMidYMid meet" version="1.0"><defs><g/><clipPath id="e28701c2f9"><path d="M 0 12.03125 L 327 12.03125 L 327 338 L 0 338 Z M 0 12.03125 " clip-rule="nonzero"/></clipPath></defs><g clip-path="url(#e28701c2f9)"><path fill="#383838" d="M 0.34375 12.085938 L 304.554688 334.199219 C 304.554688 334.199219 314.921875 341.492188 322.847656 332.976562 C 330.769531 324.445312 324.667969 315.925781 324.667969 315.925781 L 0.34375 12.085938 L 0.34375 12.082031 Z M 0.34375 12.085938 " fill-opacity="1" fill-rule="nonzero"/></g><path fill="#383838" d="M 96.667969 42.53125 L 328.335938 292.183594 C 328.335938 292.183594 338.691406 299.492188 346.613281 290.960938 C 354.550781 282.445312 348.449219 273.914062 348.449219 273.914062 Z M 96.667969 42.53125 " fill-opacity="1" fill-rule="nonzero"/><path fill="#383838" d="M 29 107.683594 L 260.664062 357.335938 C 260.664062 357.335938 271.035156 364.644531 278.957031 356.113281 C 286.878906 347.597656 280.777344 339.066406 280.777344 339.066406 L 29 107.683594 L 29.003906 107.6875 Z M 29 107.683594 " fill-opacity="1" fill-rule="nonzero"/><path fill="#383838" d="M 178.097656 68.714844 L 339.945312 243.128906 C 339.945312 243.128906 347.1875 248.242188 352.71875 242.28125 C 358.265625 236.335938 353.996094 230.375 353.996094 230.375 L 178.097656 68.714844 L 178.097656 68.71875 Z M 178.097656 68.714844 " fill-opacity="1" fill-rule="nonzero"/><path fill="#383838" d="M 51.292969 183.183594 L 213.140625 357.597656 C 213.140625 357.597656 220.382812 362.710938 225.929688 356.75 C 231.460938 350.789062 227.191406 344.84375 227.191406 344.84375 Z M 51.292969 183.183594 " fill-opacity="1" fill-rule="nonzero"/><path fill="#383838" d="M 261.273438 106.464844 L 334.621094 185.753906 C 334.621094 185.753906 338.207031 188.144531 340.945312 185.363281 C 343.683594 182.570312 341.585938 179.777344 341.585938 179.777344 Z M 261.273438 106.464844 " fill-opacity="1" fill-rule="nonzero"/><path fill="#383838" d="M 91.792969 263.5625 L 165.140625 342.855469 C 165.140625 342.855469 168.726562 345.246094 171.464844 342.453125 C 174.203125 339.660156 172.105469 336.867188 172.105469 336.867188 Z M 91.792969 263.5625 " fill-opacity="1" fill-rule="nonzero"/><g fill="#dcff9c" fill-opacity="1"><g transform="translate(106.462896, 182.246279)"><g><path d="M 74.960938 -154.417969 L 49.429688 -50.859375 L 29.820312 -154.417969 L 0 -154.417969 L 29.003906 0.203125 L 67.40625 0.203125 L 105.398438 -154.417969 Z M 74.960938 -154.417969 "/></g></g></g><g fill="#dcff9c" fill-opacity="1"><g transform="translate(222.070323, 182.246279)"><g><path d="M 55.761719 -154.625 L 0 -154.625 L 0 -0.203125 L 55.761719 -0.203125 C 74.757812 -0.203125 90.078125 -15.726562 90.078125 -34.519531 L 90.078125 -120.308594 C 90.078125 -139.304688 74.757812 -154.625 55.761719 -154.625 Z M 60.664062 -34.519531 C 60.664062 -31.863281 58.417969 -29.820312 55.761719 -29.820312 L 29.617188 -29.820312 L 29.617188 -125.210938 L 55.761719 -125.210938 C 58.417969 -125.210938 60.664062 -122.964844 60.664062 -120.308594 Z M 60.664062 -34.519531 "/></g></g></g><path stroke-linecap="butt" transform="matrix(1.025754, 0, 0, 1.025754, 89.34188, 30.639234)" fill="none" stroke-linejoin="miter" d="M 80.959762 -11.564064 L 56.069546 89.413438 L 36.963945 -11.564064 L 7.892356 -11.564064 L 36.18327 139.193868 L 73.617605 139.193868 L 110.663507 -11.564064 Z M 174.949267 -11.75828 L 120.595221 -11.75828 L 120.595221 138.805435 L 174.949267 138.805435 C 193.472218 138.805435 208.396445 123.68699 208.396445 105.358256 L 208.396445 21.688898 C 208.396445 3.215454 193.472218 -11.75828 174.949267 -11.75828 Z M 179.758988 105.358256 C 179.758988 107.936389 177.523591 109.928063 174.949267 109.928063 L 149.472593 109.928063 L 149.472593 16.924875 L 174.949267 16.924875 C 177.523591 16.924875 179.758988 19.114574 179.758988 21.688898 Z M 179.758988 105.358256 " stroke="#baff39" stroke-width="7.467487" stroke-opacity="1" stroke-miterlimit="4"/><g fill="#dcff9c" fill-opacity="1"><g transform="translate(120.935651, 365.856332)"><g><path d="M 52.289062 -154.828125 L 52.289062 -111.523438 L 31.25 -154.828125 L 0 -154.828125 L 0 -0.203125 L 29.617188 -0.203125 L 29.617188 -90.894531 L 52.289062 -44.324219 L 52.289062 -0.203125 L 81.90625 -0.203125 L 81.90625 -154.828125 Z M 52.289062 -154.828125 "/></g></g></g><g fill="#dcff9c" fill-opacity="1"><g transform="translate(213.053948, 365.856332)"><g><path d="M 81.90625 -62.503906 C 81.90625 -79.863281 68.628906 -94.367188 51.675781 -96.207031 L 84.15625 -154.828125 L 50.246094 -154.828125 L 29.617188 -117.449219 L 29.617188 -154.828125 L 0 -154.828125 L 0 -0.203125 L 29.617188 -0.203125 L 29.617188 -66.792969 L 47.796875 -66.792969 C 50.246094 -66.792969 52.289062 -64.75 52.289062 -62.300781 L 52.699219 -0.203125 L 82.316406 -0.203125 Z M 81.90625 -62.503906 "/></g></g></g><path stroke-linecap="butt" transform="matrix(1.025754, 0, 0, 1.025754, 89.34188, 30.639234)" fill="none" stroke-linejoin="miter" d="M 72.996873 167.046842 L 72.996873 209.294708 L 52.482248 167.046842 L 22.001635 167.046842 L 22.001635 317.804774 L 50.879007 317.804774 L 50.879007 229.375201 L 72.996873 274.780041 L 72.996873 317.804774 L 101.828547 317.804774 L 101.828547 167.046842 Z M 191.63287 257.083464 C 191.63287 240.118056 178.700316 226.020201 162.172848 224.218935 L 193.868267 167.046842 L 160.809522 167.046842 L 140.683331 203.510094 L 140.683331 167.046842 L 111.805959 167.046842 L 111.805959 317.804774 L 140.683331 317.804774 L 140.683331 252.902091 L 158.379908 252.902091 C 160.809522 252.902091 162.805005 254.897573 162.805005 257.277681 L 163.193438 317.804774 L 192.07081 317.804774 Z M 191.63287 257.083464 " stroke="#baff39" stroke-width="7.467487" stroke-opacity="1" stroke-miterlimit="4"/></svg>